<svg width="26" height="17" fill="none" xmlns="http://www.w3.org/2000/svg"><path d="M22.77 3.052h-6.28v-1.56h6.28v1.56zm-9.6 6.397c.404.629.607 1.393.607 2.286 0 .927-.228 1.756-.693 2.489a4.301 4.301 0 01-1.104 1.224 4.285 4.285 0 01-1.76.786c-.678.14-1.411.21-2.201.21H.993V.845h7.532c1.899.03 3.245.58 4.04 1.662.477.662.713 1.457.713 2.38 0 .955-.24 1.717-.721 2.297-.268.325-.663.621-1.188.887.795.292 1.397.748 1.8 1.377zM4.59 6.995h3.3c.68 0 1.228-.13 1.65-.386.422-.258.632-.716.632-1.373 0-.724-.278-1.206-.837-1.437-.481-.162-1.096-.245-1.841-.245H4.59v3.441zm5.9 4.517c0-.81-.332-1.37-.992-1.671-.37-.17-.891-.259-1.56-.265H4.59v4.156h3.295c.678 0 1.202-.087 1.58-.273.683-.339 1.025-.986 1.025-1.947zM25.1 8.975c.078.51.112 1.25.097 2.218h-8.134c.046 1.123.433 1.908 1.169 2.357.442.282.98.42 1.61.42.664 0 1.204-.168 1.62-.513.227-.183.427-.442.6-.766h2.982c-.08.662-.437 1.334-1.083 2.019-1 1.085-2.4 1.632-4.2 1.632-1.49 0-2.8-.462-3.937-1.377-1.135-.916-1.704-2.408-1.704-4.474 0-1.938.512-3.422 1.539-4.454 1.029-1.035 2.357-1.55 3.996-1.55.97 0 1.846.174 2.627.522.779.35 1.422.9 1.928 1.655.458.665.753 1.434.89 2.31zm-2.935.291c-.053-.776-.313-1.364-.781-1.765-.464-.404-1.042-.606-1.73-.606-.753 0-1.33.216-1.745.64-.414.426-.672 1.001-.778 1.731h5.034z" fill="#707070"/></svg>