<svg width="1879" height="962" fill="none" xmlns="http://www.w3.org/2000/svg"><path d="M8.147 4.073c0 2.716-1.358 4.074-4.074 4.074C1.358 8.147 0 6.789 0 4.073 0 2.037 2.037 0 4.073 0 6.11 0 8.147 2.037 8.147 4.073zm86.899 0c0 2.037-2.037 4.074-4.074 4.074-2.036 0-4.073-2.037-4.073-4.074C86.899 2.037 88.257 0 90.972 0c2.037 0 4.074 2.037 4.074 4.073zm86.899 0c0 2.037-2.037 4.074-4.074 4.074-2.036 0-4.073-2.037-4.073-4.074 0-2.036 2.037-4.073 4.073-4.073 2.037 0 4.074 2.037 4.074 4.073zm86.899 0c0 2.037-2.037 4.074-4.073 4.074-2.037 0-4.074-2.037-4.074-4.074 0-2.036 2.037-4.073 4.074-4.073 2.036 0 4.073 2.037 4.073 4.073zm86.22 0c0 2.037-2.037 4.074-4.073 4.074-2.037 0-4.074-2.037-4.074-4.074 0-2.036 2.037-4.073 4.074-4.073 2.036 0 4.073 2.037 4.073 4.073zm86.899 0c0 2.037-2.036 4.074-4.073 4.074-2.037 0-4.073-1.358-4.073-4.074 0-2.036 2.036-4.073 4.073-4.073 2.037 0 4.073 2.037 4.073 4.073zm86.899 0c0 2.037-2.036 4.074-4.073 4.074-2.037 0-4.752-1.358-4.752-4.074 0-2.036 2.036-4.073 4.073-4.073 2.037 0 4.752 2.037 4.752 4.073zm86.221 0c0 2.037-2.037 4.074-4.074 4.074-2.036 0-4.073-2.037-4.073-4.074 0-2.036 2.037-4.073 4.073-4.073 2.716 0 4.074 2.037 4.074 4.073zm86.899 0c0 2.037-2.037 4.074-4.074 4.074-2.036 0-4.073-2.037-4.073-4.074 0-2.036 2.037-4.073 4.073-4.073 2.037 0 4.074 2.037 4.074 4.073zm86.899 0c0 2.037-2.037 4.074-4.074 4.074-2.036 0-4.073-2.037-4.073-4.074 0-2.036 2.037-4.073 4.073-4.073 2.037 0 4.074 2.037 4.074 4.073zm86.899 0c0 2.037-2.037 4.074-4.074 4.074-2.036 0-4.073-2.037-4.073-4.074 0-2.036 2.037-4.073 4.073-4.073 2.037 0 4.074 2.037 4.074 4.073zm86.22 0c0 2.037-2.037 4.074-4.073 4.074-2.037 0-4.074-2.037-4.074-4.074 0-2.036 2.037-4.073 4.074-4.073C960.642 0 962 2.037 962 4.073zM8.147 90.973c0 2.037-1.358 4.073-4.074 4.073C1.358 95.046 0 93.01 0 90.973c0-2.037 2.037-4.074 4.073-4.074 2.037 0 4.074 1.358 4.074 4.074zm86.899 0c0 2.037-2.037 4.073-4.074 4.073-2.036 0-4.073-2.037-4.073-4.073 0-2.037 2.037-4.074 4.073-4.074 2.037 0 4.074 1.358 4.074 4.074zm86.899 0c0 2.037-2.037 4.073-4.074 4.073-2.036 0-4.073-2.037-4.073-4.073 0-2.037 2.037-4.074 4.073-4.074 2.037 0 4.074 1.358 4.074 4.074zm86.899 0c0 2.037-2.037 4.073-4.073 4.073-2.037 0-4.074-2.037-4.074-4.073 0-2.037 2.037-4.074 4.074-4.074 2.036 0 4.073 1.358 4.073 4.074zm86.22 0c0 2.037-2.037 4.073-4.073 4.073-2.037 0-4.074-2.037-4.074-4.073 0-2.037 2.037-4.074 4.074-4.074 2.036 0 4.073 1.358 4.073 4.074zm86.899 0c0 2.037-2.036 4.073-4.073 4.073-2.037 0-4.073-2.037-4.073-4.073 0-2.037 2.036-4.074 4.073-4.074 2.037 0 4.073 1.358 4.073 4.074zm86.899 0c0 2.037-2.036 4.073-4.073 4.073-2.037 0-4.073-2.037-4.073-4.073 0-2.037 2.036-4.074 4.073-4.074 2.037 0 4.073 1.358 4.073 4.074zm86.221 0c0 2.037-2.037 4.073-4.074 4.073-2.036 0-4.073-2.037-4.073-4.073 0-2.037 2.037-4.074 4.073-4.074 2.716 0 4.074 1.358 4.074 4.074zm86.899 0c0 2.037-2.037 4.073-4.074 4.073-2.036 0-4.073-2.037-4.073-4.073 0-2.037 2.037-4.074 4.073-4.074 2.037 0 4.074 1.358 4.074 4.074zm86.899 0c0 2.037-2.037 4.073-4.074 4.073-2.036 0-4.073-2.037-4.073-4.073 0-2.037 2.037-4.074 4.073-4.074 2.037 0 4.074 1.358 4.074 4.074zm86.899 0c0 2.037-2.037 4.073-4.074 4.073-2.036 0-4.073-2.037-4.073-4.073 0-2.037 2.037-4.074 4.073-4.074 2.037 0 4.074 1.358 4.074 4.074zm86.22 0c0 2.037-2.037 4.073-4.073 4.073-2.037 0-4.074-2.037-4.074-4.073 0-2.037 2.037-4.074 4.074-4.074 2.715 0 4.073 1.358 4.073 4.074zM8.147 177.872c0 2.037-2.037 4.074-4.074 4.074-2.036 0-4.073-2.037-4.073-4.074 0-2.036 2.037-4.073 4.073-4.073 2.037 0 4.074 1.358 4.074 4.073zm86.899-.001c0 2.037-2.037 4.074-4.074 4.074-2.036 0-4.073-2.037-4.073-4.074 0-2.036 2.037-4.073 4.073-4.073 2.037-.679 4.074 1.358 4.074 4.073zm86.899 0c0 2.037-2.037 4.074-4.074 4.074-2.036 0-4.073-2.037-4.073-4.074 0-2.036 2.037-4.073 4.073-4.073 2.037-.679 4.074 1.358 4.074 4.073zm86.899 0c0 2.037-2.037 4.074-4.073 4.074-2.037 0-4.074-2.037-4.074-4.074 0-2.036 2.037-4.073 4.074-4.073 2.036-.679 4.073 1.358 4.073 4.073zm86.22 0c0 2.037-2.037 4.074-4.073 4.074-2.037 0-4.074-2.037-4.074-4.074 0-2.036 2.037-4.073 4.074-4.073 2.036-.679 4.073 1.358 4.073 4.073zm86.899.001c0 2.037-2.036 4.074-4.073 4.074-2.037 0-4.073-2.037-4.073-4.074 0-2.036 2.036-4.073 4.073-4.073 2.037 0 4.073 1.358 4.073 4.073zm86.899 0c0 2.037-2.036 4.074-4.073 4.074-2.037 0-4.073-2.037-4.073-4.074 0-2.036 2.036-4.073 4.073-4.073 2.037 0 4.073 1.358 4.073 4.073zm86.221-.001c0 2.037-2.037 4.074-4.074 4.074-2.036 0-4.073-2.037-4.073-4.074 0-2.036 2.037-4.073 4.073-4.073 2.716-.679 4.074 1.358 4.074 4.073zm86.899 0c0 2.037-2.037 4.074-4.074 4.074-2.036 0-4.073-2.037-4.073-4.074 0-2.036 2.037-4.073 4.073-4.073 2.037-.679 4.074 1.358 4.074 4.073zm86.899 0c0 2.037-2.037 4.074-4.074 4.074-2.036 0-4.073-2.037-4.073-4.074 0-2.036 2.037-4.073 4.073-4.073 2.037-.679 4.074 1.358 4.074 4.073zm86.899 0c0 2.037-2.037 4.074-4.074 4.074-2.036 0-4.073-2.037-4.073-4.074 0-2.036 2.037-4.073 4.073-4.073 2.037-.679 4.074 1.358 4.074 4.073zm86.22 0c0 2.037-2.037 4.074-4.073 4.074-2.037 0-4.074-2.037-4.074-4.074 0-2.036 2.037-4.073 4.074-4.073 2.715-.679 4.073 1.358 4.073 4.073zM8.147 264.092c0 2.037-2.037 4.073-4.074 4.073-2.036 0-4.073-1.357-4.073-4.073 0-2.037 2.037-4.073 4.073-4.073 2.037 0 4.074 2.036 4.074 4.073zm86.899 0c0 2.037-2.037 4.073-4.074 4.073-2.036 0-4.073-2.036-4.073-4.073 0-2.037 2.037-4.073 4.073-4.073 2.037 0 4.074 2.036 4.074 4.073zm86.899 0c0 2.037-2.037 4.073-4.074 4.073-2.036 0-4.073-2.036-4.073-4.073 0-2.037 2.037-4.073 4.073-4.073 2.037 0 4.074 2.036 4.074 4.073zm86.899 0c0 2.037-2.037 4.073-4.073 4.073-2.037 0-4.074-2.036-4.074-4.073 0-2.037 2.037-4.073 4.074-4.073 2.036 0 4.073 2.036 4.073 4.073zm86.22 0c0 2.037-2.037 4.073-4.073 4.073-2.037 0-4.074-2.036-4.074-4.073 0-2.037 2.037-4.073 4.074-4.073 2.036 0 4.073 2.036 4.073 4.073zm86.899 0c0 2.037-2.036 4.073-4.073 4.073-2.037 0-4.073-2.036-4.073-4.073 0-2.037 2.036-4.073 4.073-4.073 2.037 0 4.073 2.036 4.073 4.073zm86.899 0c0 2.037-2.036 4.073-4.073 4.073-2.037 0-4.073-2.036-4.073-4.073 0-2.037 2.036-4.073 4.073-4.073 2.037 0 4.073 2.036 4.073 4.073zm86.221 0c0 2.037-2.037 4.073-4.074 4.073-2.036 0-4.073-2.036-4.073-4.073 0-2.037 2.037-4.073 4.073-4.073 2.716 0 4.074 2.036 4.074 4.073zm86.899 0c0 2.037-2.037 4.073-4.074 4.073-2.036 0-4.073-2.036-4.073-4.073 0-2.037 2.037-4.073 4.073-4.073 2.037 0 4.074 2.036 4.074 4.073zm86.899 0c0 2.037-2.037 4.073-4.074 4.073-2.036 0-4.073-2.036-4.073-4.073 0-2.037 2.037-4.073 4.073-4.073 2.037 0 4.074 2.036 4.074 4.073zm86.899 0c0 2.037-2.037 4.073-4.074 4.073-2.036 0-4.073-2.036-4.073-4.073 0-2.037 2.037-4.073 4.073-4.073 2.037 0 4.074 2.036 4.074 4.073zm86.22 0c0 2.037-2.037 4.073-4.073 4.073-2.037 0-4.074-2.036-4.074-4.073 0-2.037 2.037-4.073 4.074-4.073 2.715 0 4.073 2.036 4.073 4.073zM8.147 350.991c0 2.037-2.037 4.074-4.074 4.074-2.036 0-4.073-2.037-4.073-4.074s2.037-4.073 4.073-4.073c2.037 0 4.074 2.036 4.074 4.073zm86.899 0c0 2.037-2.037 4.074-4.074 4.074-2.036 0-4.073-2.037-4.073-4.074s2.037-4.073 4.073-4.073c2.037 0 4.074 2.036 4.074 4.073zm86.899 0c0 2.037-2.037 4.074-4.074 4.074-2.036 0-4.073-2.037-4.073-4.074s2.037-4.073 4.073-4.073c2.037 0 4.074 2.036 4.074 4.073zm86.899 0c0 2.037-2.037 4.074-4.073 4.074-2.037 0-4.074-2.037-4.074-4.074s2.037-4.073 4.074-4.073c2.036 0 4.073 2.036 4.073 4.073zm86.22 0c0 2.037-2.037 4.074-4.073 4.074-2.037 0-4.074-2.037-4.074-4.074s2.037-4.073 4.074-4.073c2.036 0 4.073 2.036 4.073 4.073zm86.899 0c0 2.037-2.036 4.074-4.073 4.074-2.037 0-4.073-2.037-4.073-4.074s2.036-4.073 4.073-4.073c2.037 0 4.073 2.036 4.073 4.073zm86.899 0c0 2.037-2.036 4.074-4.073 4.074-2.037 0-4.073-2.037-4.073-4.074s2.036-4.073 4.073-4.073c2.037 0 4.073 2.036 4.073 4.073zm86.221 0c0 2.037-2.037 4.074-4.074 4.074-2.036 0-4.073-2.037-4.073-4.074s2.037-4.073 4.073-4.073c2.716 0 4.074 2.036 4.074 4.073zm86.899 0c0 2.037-2.037 4.074-4.074 4.074-2.036 0-4.073-2.037-4.073-4.074s2.037-4.073 4.073-4.073c2.037 0 4.074 2.036 4.074 4.073zm86.899 0c0 2.037-2.037 4.074-4.074 4.074-2.036 0-4.073-2.037-4.073-4.074s2.037-4.073 4.073-4.073c2.037 0 4.074 2.036 4.074 4.073zm86.899 0c0 2.037-2.037 4.074-4.074 4.074-2.036 0-4.073-2.037-4.073-4.074s2.037-4.073 4.073-4.073c2.037 0 4.074 2.036 4.074 4.073zm86.22 0c0 2.037-2.037 4.074-4.073 4.074-2.037 0-4.074-2.037-4.074-4.074s2.037-4.073 4.074-4.073c2.715 0 4.073 2.036 4.073 4.073zM8.147 437.89c0 2.036-2.037 4.073-4.074 4.073-2.036 0-4.073-2.037-4.073-4.073 0-2.037 2.037-4.074 4.073-4.074 2.037 0 4.074 1.358 4.074 4.074zm86.899 0c0 2.036-2.037 4.073-4.074 4.073-2.036 0-4.073-2.037-4.073-4.073 0-2.037 2.037-4.074 4.073-4.074 2.037 0 4.074 1.358 4.074 4.074zm86.899 0c0 2.036-2.037 4.073-4.074 4.073-2.036 0-4.073-2.037-4.073-4.073 0-2.037 2.037-4.074 4.073-4.074 2.037 0 4.074 1.358 4.074 4.074zm86.899 0c0 2.036-2.037 4.073-4.073 4.073-2.037 0-4.074-2.037-4.074-4.073 0-2.037 2.037-4.074 4.074-4.074 2.036 0 4.073 1.358 4.073 4.074zm86.22 0c0 2.036-2.037 4.073-4.073 4.073-2.037 0-4.074-2.037-4.074-4.073 0-2.037 2.037-4.074 4.074-4.074 2.036 0 4.073 1.358 4.073 4.074zm86.899 0c0 2.036-2.036 4.073-4.073 4.073-2.037 0-4.073-2.037-4.073-4.073 0-2.037 2.036-4.074 4.073-4.074 2.037 0 4.073 1.358 4.073 4.074zm86.899 0c0 2.036-2.036 4.073-4.073 4.073-2.037 0-4.073-2.037-4.073-4.073 0-2.037 2.036-4.074 4.073-4.074 2.037 0 4.073 1.358 4.073 4.074zm86.221 0c0 2.036-2.037 4.073-4.074 4.073-2.036 0-4.073-2.037-4.073-4.073 0-2.037 2.037-4.074 4.073-4.074 2.716 0 4.074 1.358 4.074 4.074zm86.899 0c0 2.036-2.037 4.073-4.074 4.073-2.036 0-4.073-2.037-4.073-4.073 0-2.037 2.037-4.074 4.073-4.074 2.037 0 4.074 1.358 4.074 4.074zm86.899 0c0 2.036-2.037 4.073-4.074 4.073-2.036 0-4.073-2.037-4.073-4.073 0-2.037 2.037-4.074 4.073-4.074 2.037 0 4.074 1.358 4.074 4.074zm86.899 0c0 2.036-2.037 4.073-4.074 4.073-2.036 0-4.073-2.037-4.073-4.073 0-2.037 2.037-4.074 4.073-4.074 2.037 0 4.074 1.358 4.074 4.074zm86.22 0c0 2.036-2.037 4.073-4.073 4.073-2.037 0-4.074-2.037-4.074-4.073 0-2.037 2.037-4.074 4.074-4.074 2.715 0 4.073 1.358 4.073 4.074zM8.147 524.789c0 2.037-2.037 4.073-4.074 4.073-2.036 0-4.073-2.036-4.073-4.073 0-2.037 2.037-4.074 4.073-4.074 2.037 0 4.074 1.358 4.074 4.074zm86.899 0c0 2.037-2.037 4.074-4.074 4.074-2.036 0-4.073-2.037-4.073-4.074 0-2.036 2.037-4.073 4.073-4.073 2.037-.679 4.074 1.358 4.074 4.073zm86.899 0c0 2.037-2.037 4.074-4.074 4.074-2.036 0-4.073-2.037-4.073-4.074 0-2.036 2.037-4.073 4.073-4.073 2.037-.679 4.074 1.358 4.074 4.073zm86.899 0c0 2.037-2.037 4.074-4.073 4.074-2.037 0-4.074-2.037-4.074-4.074 0-2.036 2.037-4.073 4.074-4.073 2.036-.679 4.073 1.358 4.073 4.073zm86.22 0c0 2.037-2.037 4.074-4.073 4.074-2.037 0-4.074-2.037-4.074-4.074 0-2.036 2.037-4.073 4.074-4.073 2.036-.679 4.073 1.358 4.073 4.073zm86.899 0c0 2.037-2.036 4.073-4.073 4.073-2.037 0-4.073-2.036-4.073-4.073 0-2.037 2.036-4.074 4.073-4.074 2.037 0 4.073 1.358 4.073 4.074zm86.899 0c0 2.037-2.036 4.073-4.073 4.073-2.037 0-4.073-2.036-4.073-4.073 0-2.037 2.036-4.074 4.073-4.074 2.037 0 4.073 1.358 4.073 4.074zm86.221 0c0 2.037-2.037 4.074-4.074 4.074-2.036 0-4.073-2.037-4.073-4.074 0-2.036 2.037-4.073 4.073-4.073 2.716-.679 4.074 1.358 4.074 4.073zm86.899 0c0 2.037-2.037 4.074-4.074 4.074-2.036 0-4.073-2.037-4.073-4.074 0-2.036 2.037-4.073 4.073-4.073 2.037-.679 4.074 1.358 4.074 4.073zm86.899 0c0 2.037-2.037 4.074-4.074 4.074-2.036 0-4.073-2.037-4.073-4.074 0-2.036 2.037-4.073 4.073-4.073 2.037-.679 4.074 1.358 4.074 4.073zm86.899 0c0 2.037-2.037 4.074-4.074 4.074-2.036 0-4.073-2.037-4.073-4.074 0-2.036 2.037-4.073 4.073-4.073 2.037-.679 4.074 1.358 4.074 4.073zm86.22 0c0 2.037-2.037 4.074-4.073 4.074-2.037 0-4.074-2.037-4.074-4.074 0-2.036 2.037-4.073 4.074-4.073 2.715-.679 4.073 1.358 4.073 4.073zM8.147 611.009c0 2.036-2.037 4.073-4.074 4.073-2.036 0-4.073-1.358-4.073-4.073 0-2.037 2.037-4.074 4.073-4.074 2.037 0 4.074 2.037 4.074 4.074zm86.899 0c0 2.036-2.037 4.073-4.074 4.073-2.036 0-4.073-2.037-4.073-4.073 0-2.037 2.037-4.074 4.073-4.074 2.037 0 4.074 2.037 4.074 4.074zm86.899 0c0 2.036-2.037 4.073-4.074 4.073-2.036 0-4.073-2.037-4.073-4.073 0-2.037 2.037-4.074 4.073-4.074 2.037 0 4.074 2.037 4.074 4.074zm86.899 0c0 2.036-2.037 4.073-4.073 4.073-2.037 0-4.074-2.037-4.074-4.073 0-2.037 2.037-4.074 4.074-4.074 2.036 0 4.073 2.037 4.073 4.074zm86.22 0c0 2.036-2.037 4.073-4.073 4.073-2.037 0-4.074-2.037-4.074-4.073 0-2.037 2.037-4.074 4.074-4.074 2.036 0 4.073 2.037 4.073 4.074zm86.899 0c0 2.036-2.036 4.073-4.073 4.073-2.037 0-4.073-2.037-4.073-4.073 0-2.037 2.036-4.074 4.073-4.074 2.037 0 4.073 2.037 4.073 4.074zm86.899 0c0 2.036-2.036 4.073-4.073 4.073-2.037 0-4.073-2.037-4.073-4.073 0-2.037 2.036-4.074 4.073-4.074 2.037 0 4.073 2.037 4.073 4.074zm86.221 0c0 2.036-2.037 4.073-4.074 4.073-2.036 0-4.073-2.037-4.073-4.073 0-2.037 2.037-4.074 4.073-4.074 2.716 0 4.074 2.037 4.074 4.074zm86.899 0c0 2.036-2.037 4.073-4.074 4.073-2.036 0-4.073-2.037-4.073-4.073 0-2.037 2.037-4.074 4.073-4.074 2.037 0 4.074 2.037 4.074 4.074zm86.899 0c0 2.036-2.037 4.073-4.074 4.073-2.036 0-4.073-2.037-4.073-4.073 0-2.037 2.037-4.074 4.073-4.074 2.037 0 4.074 2.037 4.074 4.074zm86.899 0c0 2.036-2.037 4.073-4.074 4.073-2.036 0-4.073-2.037-4.073-4.073 0-2.037 2.037-4.074 4.073-4.074 2.037 0 4.074 2.037 4.074 4.074zm86.22 0c0 2.036-2.037 4.073-4.073 4.073-2.037 0-4.074-2.037-4.074-4.073 0-2.037 2.037-4.074 4.074-4.074 2.715 0 4.073 2.037 4.073 4.074zM8.147 697.908c0 2.037-2.037 4.073-4.074 4.073-2.036 0-4.073-2.036-4.073-4.073 0-2.037 2.037-4.073 4.073-4.073 2.037 0 4.074 2.036 4.074 4.073zm86.899 0c0 2.037-2.037 4.073-4.074 4.073-2.036 0-4.073-2.036-4.073-4.073 0-2.037 2.037-4.073 4.073-4.073 2.037 0 4.074 2.036 4.074 4.073zm86.899 0c0 2.037-2.037 4.073-4.074 4.073-2.036 0-4.073-2.036-4.073-4.073 0-2.037 2.037-4.073 4.073-4.073 2.037 0 4.074 2.036 4.074 4.073zm86.899 0c0 2.037-2.037 4.073-4.073 4.073-2.037 0-4.074-2.036-4.074-4.073 0-2.037 2.037-4.073 4.074-4.073 2.036 0 4.073 2.036 4.073 4.073zm86.22 0c0 2.037-2.037 4.073-4.073 4.073-2.037 0-4.074-2.036-4.074-4.073 0-2.037 2.037-4.073 4.074-4.073 2.036 0 4.073 2.036 4.073 4.073zm86.899 0c0 2.037-2.036 4.073-4.073 4.073-2.037 0-4.073-2.036-4.073-4.073 0-2.037 2.036-4.073 4.073-4.073 2.037 0 4.073 2.036 4.073 4.073zm86.899 0c0 2.037-2.036 4.073-4.073 4.073-2.037 0-4.073-2.036-4.073-4.073 0-2.037 2.036-4.073 4.073-4.073 2.037 0 4.073 2.036 4.073 4.073zm86.221 0c0 2.037-2.037 4.073-4.074 4.073-2.036 0-4.073-2.036-4.073-4.073 0-2.037 2.037-4.073 4.073-4.073 2.716 0 4.074 2.036 4.074 4.073zm86.899 0c0 2.037-2.037 4.073-4.074 4.073-2.036 0-4.073-2.036-4.073-4.073 0-2.037 2.037-4.073 4.073-4.073 2.037 0 4.074 2.036 4.074 4.073zm86.899 0c0 2.037-2.037 4.073-4.074 4.073-2.036 0-4.073-2.036-4.073-4.073 0-2.037 2.037-4.073 4.073-4.073 2.037 0 4.074 2.036 4.074 4.073zm86.899 0c0 2.037-2.037 4.073-4.074 4.073-2.036 0-4.073-2.036-4.073-4.073 0-2.037 2.037-4.073 4.073-4.073 2.037 0 4.074 2.036 4.074 4.073zm86.22 0c0 2.037-2.037 4.073-4.073 4.073-2.037 0-4.074-2.036-4.074-4.073 0-2.037 2.037-4.073 4.074-4.073 2.715 0 4.073 2.036 4.073 4.073zM8.147 784.807c0 2.037-2.037 4.074-4.074 4.074-2.036 0-4.073-2.037-4.073-4.074 0-2.036 2.037-4.073 4.073-4.073 2.037 0 4.074 1.358 4.074 4.073zm86.899 0c0 2.037-2.037 4.074-4.074 4.074-2.036 0-4.073-2.037-4.073-4.074 0-2.036 2.037-4.073 4.073-4.073 2.037 0 4.074 1.358 4.074 4.073zm86.899 0c0 2.037-2.037 4.074-4.074 4.074-2.036 0-4.073-2.037-4.073-4.074 0-2.036 2.037-4.073 4.073-4.073 2.037 0 4.074 1.358 4.074 4.073zm86.899 0c0 2.037-2.037 4.074-4.073 4.074-2.037 0-4.074-2.037-4.074-4.074 0-2.036 2.037-4.073 4.074-4.073 2.036 0 4.073 1.358 4.073 4.073zm86.22 0c0 2.037-2.037 4.074-4.073 4.074-2.037 0-4.074-2.037-4.074-4.074 0-2.036 2.037-4.073 4.074-4.073 2.036 0 4.073 1.358 4.073 4.073zm86.899 0c0 2.037-2.036 4.074-4.073 4.074-2.037 0-4.073-2.037-4.073-4.074 0-2.036 2.036-4.073 4.073-4.073 2.037 0 4.073 1.358 4.073 4.073zm86.899 0c0 2.037-2.036 4.074-4.073 4.074-2.037 0-4.073-2.037-4.073-4.074 0-2.036 2.036-4.073 4.073-4.073 2.037 0 4.073 1.358 4.073 4.073zm86.221 0c0 2.037-2.037 4.074-4.074 4.074-2.036 0-4.073-2.037-4.073-4.074 0-2.036 2.037-4.073 4.073-4.073 2.716 0 4.074 1.358 4.074 4.073zm86.899 0c0 2.037-2.037 4.074-4.074 4.074-2.036 0-4.073-2.037-4.073-4.074 0-2.036 2.037-4.073 4.073-4.073 2.037 0 4.074 1.358 4.074 4.073zm86.899 0c0 2.037-2.037 4.074-4.074 4.074-2.036 0-4.073-2.037-4.073-4.074 0-2.036 2.037-4.073 4.073-4.073 2.037 0 4.074 1.358 4.074 4.073zm86.899 0c0 2.037-2.037 4.074-4.074 4.074-2.036 0-4.073-2.037-4.073-4.074 0-2.036 2.037-4.073 4.073-4.073 2.037 0 4.074 1.358 4.074 4.073zm86.22 0c0 2.037-2.037 4.074-4.073 4.074-2.037 0-4.074-2.037-4.074-4.074 0-2.036 2.037-4.073 4.074-4.073 2.715 0 4.073 1.358 4.073 4.073zM8.147 871.028c0 2.036-2.037 4.073-4.074 4.073-2.036 0-4.073-1.358-4.073-4.073 0-2.037 2.037-4.074 4.073-4.074 2.037 0 4.074 2.037 4.074 4.074zm86.899 0c0 2.036-2.037 4.073-4.074 4.073-2.036 0-4.073-2.037-4.073-4.073 0-2.037 2.037-4.074 4.073-4.074 2.037 0 4.074 2.037 4.074 4.074zm86.899 0c0 2.036-2.037 4.073-4.074 4.073-2.036 0-4.073-2.037-4.073-4.073 0-2.037 2.037-4.074 4.073-4.074 2.037 0 4.074 2.037 4.074 4.074zm86.899 0c0 2.036-2.037 4.073-4.073 4.073-2.037 0-4.074-2.037-4.074-4.073 0-2.037 2.037-4.074 4.074-4.074 2.036 0 4.073 2.037 4.073 4.074zm86.22 0c0 2.036-2.037 4.073-4.073 4.073-2.037 0-4.074-2.037-4.074-4.073 0-2.037 2.037-4.074 4.074-4.074 2.036 0 4.073 2.037 4.073 4.074zm86.899 0c0 2.036-2.036 4.073-4.073 4.073-2.037 0-4.073-2.037-4.073-4.073 0-2.037 2.036-4.074 4.073-4.074 2.037 0 4.073 2.037 4.073 4.074zm86.899 0c0 2.036-2.036 4.073-4.073 4.073-2.037 0-4.073-2.037-4.073-4.073 0-2.037 2.036-4.074 4.073-4.074 2.037 0 4.073 2.037 4.073 4.074zm86.221 0c0 2.036-2.037 4.073-4.074 4.073-2.036 0-4.073-2.037-4.073-4.073 0-2.037 2.037-4.074 4.073-4.074 2.716 0 4.074 2.037 4.074 4.074zm86.899 0c0 2.036-2.037 4.073-4.074 4.073-2.036 0-4.073-2.037-4.073-4.073 0-2.037 2.037-4.074 4.073-4.074 2.037 0 4.074 2.037 4.074 4.074zm86.899 0c0 2.036-2.037 4.073-4.074 4.073-2.036 0-4.073-2.037-4.073-4.073 0-2.037 2.037-4.074 4.073-4.074 2.037 0 4.074 2.037 4.074 4.074zm86.899 0c0 2.036-2.037 4.073-4.074 4.073-2.036 0-4.073-2.037-4.073-4.073 0-2.037 2.037-4.074 4.073-4.074 2.037 0 4.074 2.037 4.074 4.074zm86.22 0c0 2.036-2.037 4.073-4.073 4.073-2.037 0-4.074-2.037-4.074-4.073 0-2.037 2.037-4.074 4.074-4.074 2.715 0 4.073 2.037 4.073 4.074zM8.147 957.927c0 2.036-2.037 4.073-4.074 4.073C2.037 962 0 960.642 0 957.927c0-2.037 2.037-4.074 4.073-4.074 2.037 0 4.074 2.037 4.074 4.074zm86.899 0c0 2.036-2.037 4.073-4.074 4.073-2.036 0-4.073-2.037-4.073-4.073 0-2.037 2.037-4.074 4.073-4.074 2.037 0 4.074 2.037 4.074 4.074zm86.899 0c0 2.036-2.037 4.073-4.074 4.073-2.036 0-4.073-2.037-4.073-4.073 0-2.037 2.037-4.074 4.073-4.074 2.037 0 4.074 2.037 4.074 4.074zm86.899 0c0 2.036-2.037 4.073-4.073 4.073-2.037 0-4.074-2.037-4.074-4.073 0-2.037 2.037-4.074 4.074-4.074 2.036 0 4.073 2.037 4.073 4.074zm86.22 0c0 2.036-2.037 4.073-4.073 4.073-2.037 0-4.074-2.037-4.074-4.073 0-2.037 2.037-4.074 4.074-4.074 2.036 0 4.073 2.037 4.073 4.074zm86.899 0c0 2.036-2.036 4.073-4.073 4.073-2.037 0-4.073-2.037-4.073-4.073 0-2.037 2.036-4.074 4.073-4.074 2.037 0 4.073 2.037 4.073 4.074zm86.899 0c0 2.036-2.036 4.073-4.073 4.073-2.037 0-4.073-2.037-4.073-4.073 0-2.037 2.036-4.074 4.073-4.074 2.037 0 4.073 2.037 4.073 4.074zm86.221 0c0 2.036-2.037 4.073-4.074 4.073-2.036 0-4.073-2.037-4.073-4.073 0-2.037 2.037-4.074 4.073-4.074 2.716 0 4.074 2.037 4.074 4.074zm86.899 0c0 2.036-2.037 4.073-4.074 4.073-2.036 0-4.073-2.037-4.073-4.073 0-2.037 2.037-4.074 4.073-4.074 2.037 0 4.074 2.037 4.074 4.074zm86.899 0c0 2.036-2.037 4.073-4.074 4.073-2.036 0-4.073-2.037-4.073-4.073 0-2.037 2.037-4.074 4.073-4.074 2.037 0 4.074 2.037 4.074 4.074zm86.899 0c0 2.036-2.037 4.073-4.074 4.073-2.036 0-4.073-2.037-4.073-4.073 0-2.037 2.037-4.074 4.073-4.074 2.037 0 4.074 2.037 4.074 4.074zm86.22 0c0 2.036-2.037 4.073-4.073 4.073-2.037 0-4.074-2.037-4.074-4.073 0-2.037 2.037-4.074 4.074-4.074 2.715 0 4.073 2.037 4.073 4.074zm67.26-953.854c0 2.716-1.21 4.074-3.63 4.074S1022 6.789 1022 4.073c0-2.036 1.81-4.073 3.63-4.073 1.81 0 3.63 2.037 3.63 4.073zm77.41 0c0 2.037-1.81 4.074-3.63 4.074-1.81 0-3.63-2.037-3.63-4.074 0-2.036 1.21-4.073 3.63-4.073 1.82 0 3.63 2.037 3.63 4.073zm77.42 0c0 2.037-1.82 4.074-3.63 4.074-1.82 0-3.63-2.037-3.63-4.074 0-2.036 1.81-4.073 3.63-4.073 1.81 0 3.63 2.037 3.63 4.073zm77.41 0c0 2.037-1.81 4.074-3.63 4.074-1.81 0-3.63-2.037-3.63-4.074 0-2.036 1.82-4.073 3.63-4.073 1.82 0 3.63 2.037 3.63 4.073zm76.81 0c0 2.037-1.81 4.074-3.63 4.074-1.81 0-3.63-2.037-3.63-4.074 0-2.036 1.82-4.073 3.63-4.073 1.82 0 3.63 2.037 3.63 4.073zm77.41 0c0 2.037-1.81 4.074-3.62 4.074-1.82 0-3.63-1.358-3.63-4.074 0-2.036 1.81-4.073 3.63-4.073 1.81 0 3.62 2.037 3.62 4.073zm77.42 0c0 2.037-1.82 4.074-3.63 4.074-1.81 0-4.23-1.358-4.23-4.074 0-2.036 1.81-4.073 3.62-4.073 1.82 0 4.24 2.037 4.24 4.073zm76.81 0c0 2.037-1.82 4.074-3.63 4.074-1.82 0-3.63-2.037-3.63-4.074 0-2.036 1.81-4.073 3.63-4.073 2.42 0 3.63 2.037 3.63 4.073zm77.41 0c0 2.037-1.81 4.074-3.63 4.074-1.81 0-3.63-2.037-3.63-4.074 0-2.036 1.82-4.073 3.63-4.073 1.82 0 3.63 2.037 3.63 4.073zm77.42 0c0 2.037-1.82 4.074-3.63 4.074-1.82 0-3.63-2.037-3.63-4.074 0-2.036 1.81-4.073 3.63-4.073 1.81 0 3.63 2.037 3.63 4.073zm77.41 0c0 2.037-1.81 4.074-3.63 4.074-1.81 0-3.63-2.037-3.63-4.074 0-2.036 1.82-4.073 3.63-4.073 1.82 0 3.63 2.037 3.63 4.073zm76.81 0c0 2.037-1.81 4.074-3.63 4.074-1.81 0-3.63-2.037-3.63-4.074 0-2.036 1.82-4.073 3.63-4.073 2.42 0 3.63 2.037 3.63 4.073zm-849.74 86.9c0 2.037-1.21 4.073-3.63 4.073s-3.63-2.037-3.63-4.073c0-2.037 1.81-4.074 3.63-4.074 1.81 0 3.63 1.358 3.63 4.074zm77.41 0c0 2.037-1.81 4.073-3.63 4.073-1.81 0-3.63-2.037-3.63-4.073 0-2.037 1.82-4.074 3.63-4.074 1.82 0 3.63 1.358 3.63 4.074zm77.42 0c0 2.037-1.82 4.073-3.63 4.073-1.82 0-3.63-2.037-3.63-4.073 0-2.037 1.81-4.074 3.63-4.074 1.81 0 3.63 1.358 3.63 4.074zm77.41 0c0 2.037-1.81 4.073-3.63 4.073-1.81 0-3.63-2.037-3.63-4.073 0-2.037 1.82-4.074 3.63-4.074 1.82 0 3.63 1.358 3.63 4.074zm76.81 0c0 2.037-1.81 4.073-3.63 4.073-1.81 0-3.63-2.037-3.63-4.073 0-2.037 1.82-4.074 3.63-4.074 1.82 0 3.63 1.358 3.63 4.074zm77.41 0c0 2.037-1.81 4.073-3.62 4.073-1.82 0-3.63-2.037-3.63-4.073 0-2.037 1.81-4.074 3.63-4.074 1.81 0 3.62 1.358 3.62 4.074zm77.42 0c0 2.037-1.82 4.073-3.63 4.073-1.81 0-3.63-2.037-3.63-4.073 0-2.037 1.82-4.074 3.63-4.074 1.81 0 3.63 1.358 3.63 4.074zm76.81 0c0 2.037-1.82 4.073-3.63 4.073-1.82 0-3.63-2.037-3.63-4.073 0-2.037 1.81-4.074 3.63-4.074 2.42 0 3.63 1.358 3.63 4.074zm77.41 0c0 2.037-1.81 4.073-3.63 4.073-1.81 0-3.63-2.037-3.63-4.073 0-2.037 1.82-4.074 3.63-4.074 1.82 0 3.63 1.358 3.63 4.074zm77.42 0c0 2.037-1.82 4.073-3.63 4.073-1.82 0-3.63-2.037-3.63-4.073 0-2.037 1.81-4.074 3.63-4.074 1.81 0 3.63 1.358 3.63 4.074zm77.41 0c0 2.037-1.81 4.073-3.63 4.073-1.81 0-3.63-2.037-3.63-4.073 0-2.037 1.82-4.074 3.63-4.074 1.82 0 3.63 1.358 3.63 4.074zm76.81 0c0 2.037-1.81 4.073-3.63 4.073-1.81 0-3.63-2.037-3.63-4.073 0-2.037 1.82-4.074 3.63-4.074 2.42 0 3.63 1.358 3.63 4.074zm-849.74 86.899c0 2.037-1.82 4.074-3.63 4.074-1.82 0-3.63-2.037-3.63-4.074 0-2.036 1.81-4.073 3.63-4.073 1.81 0 3.63 1.358 3.63 4.073zm77.41-.001c0 2.037-1.81 4.074-3.63 4.074-1.81 0-3.63-2.037-3.63-4.074 0-2.036 1.82-4.073 3.63-4.073 1.82-.679 3.63 1.358 3.63 4.073zm77.42 0c0 2.037-1.82 4.074-3.63 4.074-1.82 0-3.63-2.037-3.63-4.074 0-2.036 1.81-4.073 3.63-4.073 1.81-.679 3.63 1.358 3.63 4.073zm77.41 0c0 2.037-1.81 4.074-3.63 4.074-1.81 0-3.63-2.037-3.63-4.074 0-2.036 1.82-4.073 3.63-4.073 1.82-.679 3.63 1.358 3.63 4.073zm76.81 0c0 2.037-1.81 4.074-3.63 4.074-1.81 0-3.63-2.037-3.63-4.074 0-2.036 1.82-4.073 3.63-4.073 1.82-.679 3.63 1.358 3.63 4.073zm77.41.001c0 2.037-1.81 4.074-3.62 4.074-1.82 0-3.63-2.037-3.63-4.074 0-2.036 1.81-4.073 3.63-4.073 1.81 0 3.62 1.358 3.62 4.073zm77.42 0c0 2.037-1.82 4.074-3.63 4.074-1.81 0-3.63-2.037-3.63-4.074 0-2.036 1.82-4.073 3.63-4.073 1.81 0 3.63 1.358 3.63 4.073zm76.81-.001c0 2.037-1.82 4.074-3.63 4.074-1.82 0-3.63-2.037-3.63-4.074 0-2.036 1.81-4.073 3.63-4.073 2.42-.679 3.63 1.358 3.63 4.073zm77.41 0c0 2.037-1.81 4.074-3.63 4.074-1.81 0-3.63-2.037-3.63-4.074 0-2.036 1.82-4.073 3.63-4.073 1.82-.679 3.63 1.358 3.63 4.073zm77.42 0c0 2.037-1.82 4.074-3.63 4.074-1.82 0-3.63-2.037-3.63-4.074 0-2.036 1.81-4.073 3.63-4.073 1.81-.679 3.63 1.358 3.63 4.073zm77.41 0c0 2.037-1.81 4.074-3.63 4.074-1.81 0-3.63-2.037-3.63-4.074 0-2.036 1.82-4.073 3.63-4.073 1.82-.679 3.63 1.358 3.63 4.073zm76.81 0c0 2.037-1.81 4.074-3.63 4.074-1.81 0-3.63-2.037-3.63-4.074 0-2.036 1.82-4.073 3.63-4.073 2.42-.679 3.63 1.358 3.63 4.073zm-849.74 86.221c0 2.037-1.82 4.073-3.63 4.073-1.82 0-3.63-1.357-3.63-4.073 0-2.037 1.81-4.073 3.63-4.073 1.81 0 3.63 2.036 3.63 4.073zm77.41 0c0 2.037-1.81 4.073-3.63 4.073-1.81 0-3.63-2.036-3.63-4.073 0-2.037 1.82-4.073 3.63-4.073 1.82 0 3.63 2.036 3.63 4.073zm77.42 0c0 2.037-1.82 4.073-3.63 4.073-1.82 0-3.63-2.036-3.63-4.073 0-2.037 1.81-4.073 3.63-4.073 1.81 0 3.63 2.036 3.63 4.073zm77.41 0c0 2.037-1.81 4.073-3.63 4.073-1.81 0-3.63-2.036-3.63-4.073 0-2.037 1.82-4.073 3.63-4.073 1.82 0 3.63 2.036 3.63 4.073zm76.81 0c0 2.037-1.81 4.073-3.63 4.073-1.81 0-3.63-2.036-3.63-4.073 0-2.037 1.82-4.073 3.63-4.073 1.82 0 3.63 2.036 3.63 4.073zm77.41 0c0 2.037-1.81 4.073-3.62 4.073-1.82 0-3.63-2.036-3.63-4.073 0-2.037 1.81-4.073 3.63-4.073 1.81 0 3.62 2.036 3.62 4.073zm77.42 0c0 2.037-1.82 4.073-3.63 4.073-1.81 0-3.63-2.036-3.63-4.073 0-2.037 1.82-4.073 3.63-4.073 1.81 0 3.63 2.036 3.63 4.073zm76.81 0c0 2.037-1.82 4.073-3.63 4.073-1.82 0-3.63-2.036-3.63-4.073 0-2.037 1.81-4.073 3.63-4.073 2.42 0 3.63 2.036 3.63 4.073zm77.41 0c0 2.037-1.81 4.073-3.63 4.073-1.81 0-3.63-2.036-3.63-4.073 0-2.037 1.82-4.073 3.63-4.073 1.82 0 3.63 2.036 3.63 4.073zm77.42 0c0 2.037-1.82 4.073-3.63 4.073-1.82 0-3.63-2.036-3.63-4.073 0-2.037 1.81-4.073 3.63-4.073 1.81 0 3.63 2.036 3.63 4.073zm77.41 0c0 2.037-1.81 4.073-3.63 4.073-1.81 0-3.63-2.036-3.63-4.073 0-2.037 1.82-4.073 3.63-4.073 1.82 0 3.63 2.036 3.63 4.073zm76.81 0c0 2.037-1.81 4.073-3.63 4.073-1.81 0-3.63-2.036-3.63-4.073 0-2.037 1.82-4.073 3.63-4.073 2.42 0 3.63 2.036 3.63 4.073zm-849.74 86.899c0 2.037-1.82 4.074-3.63 4.074-1.82 0-3.63-2.037-3.63-4.074s1.81-4.073 3.63-4.073c1.81 0 3.63 2.036 3.63 4.073zm77.41 0c0 2.037-1.81 4.074-3.63 4.074-1.81 0-3.63-2.037-3.63-4.074s1.82-4.073 3.63-4.073c1.82 0 3.63 2.036 3.63 4.073zm77.42 0c0 2.037-1.82 4.074-3.63 4.074-1.82 0-3.63-2.037-3.63-4.074s1.81-4.073 3.63-4.073c1.81 0 3.63 2.036 3.63 4.073zm77.41 0c0 2.037-1.81 4.074-3.63 4.074-1.81 0-3.63-2.037-3.63-4.074s1.82-4.073 3.63-4.073c1.82 0 3.63 2.036 3.63 4.073zm76.81 0c0 2.037-1.81 4.074-3.63 4.074-1.81 0-3.63-2.037-3.63-4.074s1.82-4.073 3.63-4.073c1.82 0 3.63 2.036 3.63 4.073zm77.41 0c0 2.037-1.81 4.074-3.62 4.074-1.82 0-3.63-2.037-3.63-4.074s1.81-4.073 3.63-4.073c1.81 0 3.62 2.036 3.62 4.073zm77.42 0c0 2.037-1.82 4.074-3.63 4.074-1.81 0-3.63-2.037-3.63-4.074s1.82-4.073 3.63-4.073c1.81 0 3.63 2.036 3.63 4.073zm76.81 0c0 2.037-1.82 4.074-3.63 4.074-1.82 0-3.63-2.037-3.63-4.074s1.81-4.073 3.63-4.073c2.42 0 3.63 2.036 3.63 4.073zm77.41 0c0 2.037-1.81 4.074-3.63 4.074-1.81 0-3.63-2.037-3.63-4.074s1.82-4.073 3.63-4.073c1.82 0 3.63 2.036 3.63 4.073zm77.42 0c0 2.037-1.82 4.074-3.63 4.074-1.82 0-3.63-2.037-3.63-4.074s1.81-4.073 3.63-4.073c1.81 0 3.63 2.036 3.63 4.073zm77.41 0c0 2.037-1.81 4.074-3.63 4.074-1.81 0-3.63-2.037-3.63-4.074s1.82-4.073 3.63-4.073c1.82 0 3.63 2.036 3.63 4.073zm76.81 0c0 2.037-1.81 4.074-3.63 4.074-1.81 0-3.63-2.037-3.63-4.074s1.82-4.073 3.63-4.073c2.42 0 3.63 2.036 3.63 4.073zm-849.74 86.899c0 2.036-1.82 4.073-3.63 4.073-1.82 0-3.63-2.037-3.63-4.073 0-2.037 1.81-4.074 3.63-4.074 1.81 0 3.63 1.358 3.63 4.074zm77.41 0c0 2.036-1.81 4.073-3.63 4.073-1.81 0-3.63-2.037-3.63-4.073 0-2.037 1.82-4.074 3.63-4.074 1.82 0 3.63 1.358 3.63 4.074zm77.42 0c0 2.036-1.82 4.073-3.63 4.073-1.82 0-3.63-2.037-3.63-4.073 0-2.037 1.81-4.074 3.63-4.074 1.81 0 3.63 1.358 3.63 4.074zm77.41 0c0 2.036-1.81 4.073-3.63 4.073-1.81 0-3.63-2.037-3.63-4.073 0-2.037 1.82-4.074 3.63-4.074 1.82 0 3.63 1.358 3.63 4.074zm76.81 0c0 2.036-1.81 4.073-3.63 4.073-1.81 0-3.63-2.037-3.63-4.073 0-2.037 1.82-4.074 3.63-4.074 1.82 0 3.63 1.358 3.63 4.074zm77.41 0c0 2.036-1.81 4.073-3.62 4.073-1.82 0-3.63-2.037-3.63-4.073 0-2.037 1.81-4.074 3.63-4.074 1.81 0 3.62 1.358 3.62 4.074zm77.42 0c0 2.036-1.82 4.073-3.63 4.073-1.81 0-3.63-2.037-3.63-4.073 0-2.037 1.82-4.074 3.63-4.074 1.81 0 3.63 1.358 3.63 4.074zm76.81 0c0 2.036-1.82 4.073-3.63 4.073-1.82 0-3.63-2.037-3.63-4.073 0-2.037 1.81-4.074 3.63-4.074 2.42 0 3.63 1.358 3.63 4.074zm77.41 0c0 2.036-1.81 4.073-3.63 4.073-1.81 0-3.63-2.037-3.63-4.073 0-2.037 1.82-4.074 3.63-4.074 1.82 0 3.63 1.358 3.63 4.074zm77.42 0c0 2.036-1.82 4.073-3.63 4.073-1.82 0-3.63-2.037-3.63-4.073 0-2.037 1.81-4.074 3.63-4.074 1.81 0 3.63 1.358 3.63 4.074zm77.41 0c0 2.036-1.81 4.073-3.63 4.073-1.81 0-3.63-2.037-3.63-4.073 0-2.037 1.82-4.074 3.63-4.074 1.82 0 3.63 1.358 3.63 4.074zm76.81 0c0 2.036-1.81 4.073-3.63 4.073-1.81 0-3.63-2.037-3.63-4.073 0-2.037 1.82-4.074 3.63-4.074 2.42 0 3.63 1.358 3.63 4.074zm-849.74 86.899c0 2.037-1.82 4.073-3.63 4.073-1.82 0-3.63-2.036-3.63-4.073 0-2.037 1.81-4.074 3.63-4.074 1.81 0 3.63 1.358 3.63 4.074zm77.41 0c0 2.037-1.81 4.074-3.63 4.074-1.81 0-3.63-2.037-3.63-4.074 0-2.036 1.82-4.073 3.63-4.073 1.82-.679 3.63 1.358 3.63 4.073zm77.42 0c0 2.037-1.82 4.074-3.63 4.074-1.82 0-3.63-2.037-3.63-4.074 0-2.036 1.81-4.073 3.63-4.073 1.81-.679 3.63 1.358 3.63 4.073zm77.41 0c0 2.037-1.81 4.074-3.63 4.074-1.81 0-3.63-2.037-3.63-4.074 0-2.036 1.82-4.073 3.63-4.073 1.82-.679 3.63 1.358 3.63 4.073zm76.81 0c0 2.037-1.81 4.074-3.63 4.074-1.81 0-3.63-2.037-3.63-4.074 0-2.036 1.82-4.073 3.63-4.073 1.82-.679 3.63 1.358 3.63 4.073zm77.41 0c0 2.037-1.81 4.073-3.62 4.073-1.82 0-3.63-2.036-3.63-4.073 0-2.037 1.81-4.074 3.63-4.074 1.81 0 3.62 1.358 3.62 4.074zm77.42 0c0 2.037-1.82 4.073-3.63 4.073-1.81 0-3.63-2.036-3.63-4.073 0-2.037 1.82-4.074 3.63-4.074 1.81 0 3.63 1.358 3.63 4.074zm76.81 0c0 2.037-1.82 4.074-3.63 4.074-1.82 0-3.63-2.037-3.63-4.074 0-2.036 1.81-4.073 3.63-4.073 2.42-.679 3.63 1.358 3.63 4.073zm77.41 0c0 2.037-1.81 4.074-3.63 4.074-1.81 0-3.63-2.037-3.63-4.074 0-2.036 1.82-4.073 3.63-4.073 1.82-.679 3.63 1.358 3.63 4.073zm77.42 0c0 2.037-1.82 4.074-3.63 4.074-1.82 0-3.63-2.037-3.63-4.074 0-2.036 1.81-4.073 3.63-4.073 1.81-.679 3.63 1.358 3.63 4.073zm77.41 0c0 2.037-1.81 4.074-3.63 4.074-1.81 0-3.63-2.037-3.63-4.074 0-2.036 1.82-4.073 3.63-4.073 1.82-.679 3.63 1.358 3.63 4.073zm76.81 0c0 2.037-1.81 4.074-3.63 4.074-1.81 0-3.63-2.037-3.63-4.074 0-2.036 1.82-4.073 3.63-4.073 2.42-.679 3.63 1.358 3.63 4.073zm-849.74 86.22c0 2.036-1.82 4.073-3.63 4.073-1.82 0-3.63-1.358-3.63-4.073 0-2.037 1.81-4.074 3.63-4.074 1.81 0 3.63 2.037 3.63 4.074zm77.41 0c0 2.036-1.81 4.073-3.63 4.073-1.81 0-3.63-2.037-3.63-4.073 0-2.037 1.82-4.074 3.63-4.074 1.82 0 3.63 2.037 3.63 4.074zm77.42 0c0 2.036-1.82 4.073-3.63 4.073-1.82 0-3.63-2.037-3.63-4.073 0-2.037 1.81-4.074 3.63-4.074 1.81 0 3.63 2.037 3.63 4.074zm77.41 0c0 2.036-1.81 4.073-3.63 4.073-1.81 0-3.63-2.037-3.63-4.073 0-2.037 1.82-4.074 3.63-4.074 1.82 0 3.63 2.037 3.63 4.074zm76.81 0c0 2.036-1.81 4.073-3.63 4.073-1.81 0-3.63-2.037-3.63-4.073 0-2.037 1.82-4.074 3.63-4.074 1.82 0 3.63 2.037 3.63 4.074zm77.41 0c0 2.036-1.81 4.073-3.62 4.073-1.82 0-3.63-2.037-3.63-4.073 0-2.037 1.81-4.074 3.63-4.074 1.81 0 3.62 2.037 3.62 4.074zm77.42 0c0 2.036-1.82 4.073-3.63 4.073-1.81 0-3.63-2.037-3.63-4.073 0-2.037 1.82-4.074 3.63-4.074 1.81 0 3.63 2.037 3.63 4.074zm76.81 0c0 2.036-1.82 4.073-3.63 4.073-1.82 0-3.63-2.037-3.63-4.073 0-2.037 1.81-4.074 3.63-4.074 2.42 0 3.63 2.037 3.63 4.074zm77.41 0c0 2.036-1.81 4.073-3.63 4.073-1.81 0-3.63-2.037-3.63-4.073 0-2.037 1.82-4.074 3.63-4.074 1.82 0 3.63 2.037 3.63 4.074zm77.42 0c0 2.036-1.82 4.073-3.63 4.073-1.82 0-3.63-2.037-3.63-4.073 0-2.037 1.81-4.074 3.63-4.074 1.81 0 3.63 2.037 3.63 4.074zm77.41 0c0 2.036-1.81 4.073-3.63 4.073-1.81 0-3.63-2.037-3.63-4.073 0-2.037 1.82-4.074 3.63-4.074 1.82 0 3.63 2.037 3.63 4.074zm76.81 0c0 2.036-1.81 4.073-3.63 4.073-1.81 0-3.63-2.037-3.63-4.073 0-2.037 1.82-4.074 3.63-4.074 2.42 0 3.63 2.037 3.63 4.074zm-849.74 86.899c0 2.037-1.82 4.073-3.63 4.073-1.82 0-3.63-2.036-3.63-4.073 0-2.037 1.81-4.073 3.63-4.073 1.81 0 3.63 2.036 3.63 4.073zm77.41 0c0 2.037-1.81 4.073-3.63 4.073-1.81 0-3.63-2.036-3.63-4.073 0-2.037 1.82-4.073 3.63-4.073 1.82 0 3.63 2.036 3.63 4.073zm77.42 0c0 2.037-1.82 4.073-3.63 4.073-1.82 0-3.63-2.036-3.63-4.073 0-2.037 1.81-4.073 3.63-4.073 1.81 0 3.63 2.036 3.63 4.073zm77.41 0c0 2.037-1.81 4.073-3.63 4.073-1.81 0-3.63-2.036-3.63-4.073 0-2.037 1.82-4.073 3.63-4.073 1.82 0 3.63 2.036 3.63 4.073zm76.81 0c0 2.037-1.81 4.073-3.63 4.073-1.81 0-3.63-2.036-3.63-4.073 0-2.037 1.82-4.073 3.63-4.073 1.82 0 3.63 2.036 3.63 4.073zm77.41 0c0 2.037-1.81 4.073-3.62 4.073-1.82 0-3.63-2.036-3.63-4.073 0-2.037 1.81-4.073 3.63-4.073 1.81 0 3.62 2.036 3.62 4.073zm77.42 0c0 2.037-1.82 4.073-3.63 4.073-1.81 0-3.63-2.036-3.63-4.073 0-2.037 1.82-4.073 3.63-4.073 1.81 0 3.63 2.036 3.63 4.073zm76.81 0c0 2.037-1.82 4.073-3.63 4.073-1.82 0-3.63-2.036-3.63-4.073 0-2.037 1.81-4.073 3.63-4.073 2.42 0 3.63 2.036 3.63 4.073zm77.41 0c0 2.037-1.81 4.073-3.63 4.073-1.81 0-3.63-2.036-3.63-4.073 0-2.037 1.82-4.073 3.63-4.073 1.82 0 3.63 2.036 3.63 4.073zm77.42 0c0 2.037-1.82 4.073-3.63 4.073-1.82 0-3.63-2.036-3.63-4.073 0-2.037 1.81-4.073 3.63-4.073 1.81 0 3.63 2.036 3.63 4.073zm77.41 0c0 2.037-1.81 4.073-3.63 4.073-1.81 0-3.63-2.036-3.63-4.073 0-2.037 1.82-4.073 3.63-4.073 1.82 0 3.63 2.036 3.63 4.073zm76.81 0c0 2.037-1.81 4.073-3.63 4.073-1.81 0-3.63-2.036-3.63-4.073 0-2.037 1.82-4.073 3.63-4.073 2.42 0 3.63 2.036 3.63 4.073zm-849.74 86.899c0 2.037-1.82 4.074-3.63 4.074-1.82 0-3.63-2.037-3.63-4.074 0-2.036 1.81-4.073 3.63-4.073 1.81 0 3.63 1.358 3.63 4.073zm77.41 0c0 2.037-1.81 4.074-3.63 4.074-1.81 0-3.63-2.037-3.63-4.074 0-2.036 1.82-4.073 3.63-4.073 1.82 0 3.63 1.358 3.63 4.073zm77.42 0c0 2.037-1.82 4.074-3.63 4.074-1.82 0-3.63-2.037-3.63-4.074 0-2.036 1.81-4.073 3.63-4.073 1.81 0 3.63 1.358 3.63 4.073zm77.41 0c0 2.037-1.81 4.074-3.63 4.074-1.81 0-3.63-2.037-3.63-4.074 0-2.036 1.82-4.073 3.63-4.073 1.82 0 3.63 1.358 3.63 4.073zm76.81 0c0 2.037-1.81 4.074-3.63 4.074-1.81 0-3.63-2.037-3.63-4.074 0-2.036 1.82-4.073 3.63-4.073 1.82 0 3.63 1.358 3.63 4.073zm77.41 0c0 2.037-1.81 4.074-3.62 4.074-1.82 0-3.63-2.037-3.63-4.074 0-2.036 1.81-4.073 3.63-4.073 1.81 0 3.62 1.358 3.62 4.073zm77.42 0c0 2.037-1.82 4.074-3.63 4.074-1.81 0-3.63-2.037-3.63-4.074 0-2.036 1.82-4.073 3.63-4.073 1.81 0 3.63 1.358 3.63 4.073zm76.81 0c0 2.037-1.82 4.074-3.63 4.074-1.82 0-3.63-2.037-3.63-4.074 0-2.036 1.81-4.073 3.63-4.073 2.42 0 3.63 1.358 3.63 4.073zm77.41 0c0 2.037-1.81 4.074-3.63 4.074-1.81 0-3.63-2.037-3.63-4.074 0-2.036 1.82-4.073 3.63-4.073 1.82 0 3.63 1.358 3.63 4.073zm77.42 0c0 2.037-1.82 4.074-3.63 4.074-1.82 0-3.63-2.037-3.63-4.074 0-2.036 1.81-4.073 3.63-4.073 1.81 0 3.63 1.358 3.63 4.073zm77.41 0c0 2.037-1.81 4.074-3.63 4.074-1.81 0-3.63-2.037-3.63-4.074 0-2.036 1.82-4.073 3.63-4.073 1.82 0 3.63 1.358 3.63 4.073zm76.81 0c0 2.037-1.81 4.074-3.63 4.074-1.81 0-3.63-2.037-3.63-4.074 0-2.036 1.82-4.073 3.63-4.073 2.42 0 3.63 1.358 3.63 4.073zm-849.74 86.221c0 2.036-1.82 4.073-3.63 4.073-1.82 0-3.63-1.358-3.63-4.073 0-2.037 1.81-4.074 3.63-4.074 1.81 0 3.63 2.037 3.63 4.074zm77.41 0c0 2.036-1.81 4.073-3.63 4.073-1.81 0-3.63-2.037-3.63-4.073 0-2.037 1.82-4.074 3.63-4.074 1.82 0 3.63 2.037 3.63 4.074zm77.42 0c0 2.036-1.82 4.073-3.63 4.073-1.82 0-3.63-2.037-3.63-4.073 0-2.037 1.81-4.074 3.63-4.074 1.81 0 3.63 2.037 3.63 4.074zm77.41 0c0 2.036-1.81 4.073-3.63 4.073-1.81 0-3.63-2.037-3.63-4.073 0-2.037 1.82-4.074 3.63-4.074 1.82 0 3.63 2.037 3.63 4.074zm76.81 0c0 2.036-1.81 4.073-3.63 4.073-1.81 0-3.63-2.037-3.63-4.073 0-2.037 1.82-4.074 3.63-4.074 1.82 0 3.63 2.037 3.63 4.074zm77.41 0c0 2.036-1.81 4.073-3.62 4.073-1.82 0-3.63-2.037-3.63-4.073 0-2.037 1.81-4.074 3.63-4.074 1.81 0 3.62 2.037 3.62 4.074zm77.42 0c0 2.036-1.82 4.073-3.63 4.073-1.81 0-3.63-2.037-3.63-4.073 0-2.037 1.82-4.074 3.63-4.074 1.81 0 3.63 2.037 3.63 4.074zm76.81 0c0 2.036-1.82 4.073-3.63 4.073-1.82 0-3.63-2.037-3.63-4.073 0-2.037 1.81-4.074 3.63-4.074 2.42 0 3.63 2.037 3.63 4.074zm77.41 0c0 2.036-1.81 4.073-3.63 4.073-1.81 0-3.63-2.037-3.63-4.073 0-2.037 1.82-4.074 3.63-4.074 1.82 0 3.63 2.037 3.63 4.074zm77.42 0c0 2.036-1.82 4.073-3.63 4.073-1.82 0-3.63-2.037-3.63-4.073 0-2.037 1.81-4.074 3.63-4.074 1.81 0 3.63 2.037 3.63 4.074zm77.41 0c0 2.036-1.81 4.073-3.63 4.073-1.81 0-3.63-2.037-3.63-4.073 0-2.037 1.82-4.074 3.63-4.074 1.82 0 3.63 2.037 3.63 4.074zm76.81 0c0 2.036-1.81 4.073-3.63 4.073-1.81 0-3.63-2.037-3.63-4.073 0-2.037 1.82-4.074 3.63-4.074 2.42 0 3.63 2.037 3.63 4.074zm-849.74 86.899c0 2.036-1.82 4.073-3.63 4.073-1.82 0-3.63-1.358-3.63-4.073 0-2.037 1.81-4.074 3.63-4.074 1.81 0 3.63 2.037 3.63 4.074zm77.41 0c0 2.036-1.81 4.073-3.63 4.073-1.81 0-3.63-2.037-3.63-4.073 0-2.037 1.82-4.074 3.63-4.074 1.82 0 3.63 2.037 3.63 4.074zm77.42 0c0 2.036-1.82 4.073-3.63 4.073-1.82 0-3.63-2.037-3.63-4.073 0-2.037 1.81-4.074 3.63-4.074 1.81 0 3.63 2.037 3.63 4.074zm77.41 0c0 2.036-1.81 4.073-3.63 4.073-1.81 0-3.63-2.037-3.63-4.073 0-2.037 1.82-4.074 3.63-4.074 1.82 0 3.63 2.037 3.63 4.074zm76.81 0c0 2.036-1.81 4.073-3.63 4.073-1.81 0-3.63-2.037-3.63-4.073 0-2.037 1.82-4.074 3.63-4.074 1.82 0 3.63 2.037 3.63 4.074zm77.41 0c0 2.036-1.81 4.073-3.62 4.073-1.82 0-3.63-2.037-3.63-4.073 0-2.037 1.81-4.074 3.63-4.074 1.81 0 3.62 2.037 3.62 4.074zm77.42 0c0 2.036-1.82 4.073-3.63 4.073-1.81 0-3.63-2.037-3.63-4.073 0-2.037 1.82-4.074 3.63-4.074 1.81 0 3.63 2.037 3.63 4.074zm76.81 0c0 2.036-1.82 4.073-3.63 4.073-1.82 0-3.63-2.037-3.63-4.073 0-2.037 1.81-4.074 3.63-4.074 2.42 0 3.63 2.037 3.63 4.074zm77.41 0c0 2.036-1.81 4.073-3.63 4.073-1.81 0-3.63-2.037-3.63-4.073 0-2.037 1.82-4.074 3.63-4.074 1.82 0 3.63 2.037 3.63 4.074zm77.42 0c0 2.036-1.82 4.073-3.63 4.073-1.82 0-3.63-2.037-3.63-4.073 0-2.037 1.81-4.074 3.63-4.074 1.81 0 3.63 2.037 3.63 4.074zm77.41 0c0 2.036-1.81 4.073-3.63 4.073-1.81 0-3.63-2.037-3.63-4.073 0-2.037 1.82-4.074 3.63-4.074 1.82 0 3.63 2.037 3.63 4.074zm76.81 0c0 2.036-1.81 4.073-3.63 4.073-1.81 0-3.63-2.037-3.63-4.073 0-2.037 1.82-4.074 3.63-4.074 2.42 0 3.63 2.037 3.63 4.074z" fill="#E5E5E5"/></svg>