<svg width="21" height="20" fill="none" xmlns="http://www.w3.org/2000/svg"><path d="M5.403 6.948h-3.87a.31.31 0 00-.31.311v12.43c0 .172.139.31.31.31h3.87a.31.31 0 00.31-.31V7.259a.31.31 0 00-.31-.31zM3.47.769a2.555 2.555 0 00-2.554 2.55A2.555 2.555 0 003.47 5.871a2.554 2.554 0 002.55-2.552A2.554 2.554 0 003.47.77zM15.244 6.64c-1.554 0-2.703.668-3.4 1.427v-.808a.31.31 0 00-.31-.31H7.828a.31.31 0 00-.31.31v12.43a.31.31 0 00.31.311h3.861a.31.31 0 00.31-.31v-6.15c0-2.073.564-2.88 2.008-2.88 1.574 0 1.699 1.294 1.699 2.986v6.043a.31.31 0 00.31.311h3.863a.31.31 0 00.31-.31v-6.82c0-3.081-.587-6.231-4.945-6.231z" fill="#707070"/></svg>