<svg width="32" height="34" fill="none" xmlns="http://www.w3.org/2000/svg"><path d="M5.515.433a2.95 2.95 0 00-2.83-.135l15.264 15.297 4.991-5.014L5.515.433zm-4.233 1.28a3.11 3.11 0 00-.296 1.329v27.982c0 .47.104.916.299 1.315l15.259-15.331L1.282 1.714zm16.67 16.705L2.71 33.731A2.99 2.99 0 003.975 34c.531 0 1.06-.127 1.54-.415l17.429-10.163-4.993-5.004zm11.625-3.972a.28.28 0 00-.018-.011l-4.839-2.818-5.363 5.389 5.367 5.378 4.853-2.83A2.967 2.967 0 0031.014 17a2.965 2.965 0 00-1.437-2.554z" fill="#fff"/></svg>