<svg width="322" height="243" fill="none" xmlns="http://www.w3.org/2000/svg"><path d="M137.436 230.4a6.337 6.337 0 00-4.447 1.843 6.339 6.339 0 00-1.842 4.446 6.34 6.34 0 001.842 4.447 6.337 6.337 0 004.447 1.843 6.345 6.345 0 004.446-1.843 6.324 6.324 0 001.843-4.447 6.336 6.336 0 00-1.843-4.446 6.345 6.345 0 00-4.446-1.843z" fill="#FE043C"/><path d="M262.699 124.815l-14.657-66.214a15.699 15.699 0 009.898-5.462 18.756 18.756 0 009.974 2.863h12.578a6.288 6.288 0 006.289-6.29V24.556a6.288 6.288 0 00-6.289-6.289h-12.578a18.746 18.746 0 00-10.232 3.03c-2.879-3.256-7.083-5.315-11.76-5.315h-37.125c-6.67 0-12.379 4.184-14.652 10.063h-14.907c-9.016 0-16.351 7.336-16.351 16.352s7.335 16.351 16.351 16.351h32.372v12.674a6.288 6.288 0 006.289 6.29 6.288 6.288 0 006.289-6.29V58.748h11.006l15.786 71.329-29.878 53.217a18.473 18.473 0 01-16.071 9.391h-74.587c-3.122-26.185-25.449-46.558-52.46-46.558-11.951 0-23.227 3.894-32.61 11.259a.864.864 0 00-.036.029c-11.17 8.785-18.192 21.393-19.828 35.27H12.593c.82-45.212 37.855-81.738 83.256-81.738h44.613a6.397 6.397 0 016.388 6.39v56.481a6.288 6.288 0 006.289 6.289h33.464a37.514 37.514 0 0032.831-19.37 37.594 37.594 0 004.678-18.099l.032-20.894a6.291 6.291 0 00-6.282-6.299h-.007a6.29 6.29 0 00-6.289 6.28l-.032 20.899a24.986 24.986 0 01-3.108 12.03 24.94 24.94 0 01-21.823 12.873h-27.175v-50.192a18.87 18.87 0 00-2.233-8.918c5.65-3.265 9.463-9.367 9.463-16.347 0-10.404-8.466-18.867-18.867-18.867h-22.956a18.78 18.78 0 00-6.289 1.081V19.117C118.546 8.713 110.081.25 99.679.25H59.107C29.697.25 5.237 21.844.742 50.007c-.19.6-.292 1.236-.292 1.897 0 .04.004.076.004.113A59.396 59.396 0 000 59.357v32.716c0 9.446 6.98 17.292 16.052 18.656l13.927 13.927C11.527 142.137 0 166.856 0 194.221v4.754a6.289 6.289 0 006.29 6.289h35.343a6.417 6.417 0 00-.125 1.257c0 9.127 3.378 17.477 8.94 23.879H6.289a6.288 6.288 0 100 12.578h70.968c.243.008.484.02.727.02 20.113 0 36.477-16.364 36.477-36.477 0-.429-.044-.852-.125-1.257h90.695a31.073 31.073 0 0024.957-12.598h7.965a36.429 36.429 0 00-2.742 13.855c0 9.127 3.378 17.477 8.94 23.879h-81.559a6.29 6.29 0 000 12.578H270.96c.244.008.484.02.728.02 20.112 0 36.476-16.364 36.476-36.477 0-4.8-.951-9.497-2.742-13.855h10.289a6.289 6.289 0 006.289-6.289c0-33.197-26.397-60.346-59.301-61.562zM124.835 85.784h22.956a6.297 6.297 0 016.289 6.289 6.298 6.298 0 01-6.289 6.289h-22.956a6.297 6.297 0 01-6.289-6.29 6.295 6.295 0 016.289-6.288zM12.578 59.357c0-.388.02-.773.03-1.162h68.818a6.289 6.289 0 006.29-6.289 6.289 6.289 0 00-6.29-6.289H14.652c5.876-18.97 23.581-32.786 44.455-32.786h40.57a6.295 6.295 0 016.289 6.289v72.953a6.296 6.296 0 01-6.29 6.289H18.865c-3.467 0-6.287-2.823-6.287-6.29V59.358zm21.474 51.583h14.391a95.9 95.9 0 00-8.743 5.648l-5.648-5.648zm67.831 95.581c0 13.097-10.59 23.761-23.655 23.891-.081-.002-.163-.012-.244-.012h-.724c-12.844-.385-23.174-10.944-23.174-23.879 0-.429-.044-.852-.125-1.257h48.047a6.425 6.425 0 00-.125 1.257zm-63.682-13.836c1.558-9.991 6.805-19.017 14.91-25.382.02-.012.037-.029.056-.042 7.14-5.596 15.72-8.556 24.817-8.556 20.066 0 36.75 14.752 39.779 33.98H38.201zm229.713-161.84h6.289v12.578h-6.289a6.295 6.295 0 01-6.289-6.289 6.296 6.296 0 016.289-6.289zm-92.449 11.552a3.777 3.777 0 013.773-3.774h13.856v4.422c0 1.071.108 2.115.312 3.125h-14.168a3.777 3.777 0 01-3.773-3.773zm42.434 3.773h-9.102a3.128 3.128 0 01-3.125-3.125v-11.36a3.13 3.13 0 013.125-3.124h37.125a3.13 3.13 0 013.125 3.125v11.36a3.128 3.128 0 01-3.125 3.124h-28.023zm77.687 160.351c0 13.097-10.591 23.761-23.655 23.891-.081-.002-.162-.012-.243-.012h-.725c-12.844-.385-23.174-10.944-23.174-23.879 0-4.996 1.558-9.826 4.427-13.855h38.943a23.863 23.863 0 014.427 13.855zm-58.26-26.433l23.982-42.714c24.491.449 44.655 18.936 47.711 42.714h-71.693z" fill="#FE043C"/><path d="M217.899 102.867a6.289 6.289 0 100-12.578h-.022a6.28 6.28 0 00-6.28 6.29c0 3.473 2.828 6.288 6.302 6.288z" fill="#FE043C"/></svg>