<svg width="199" height="199" fill="none" xmlns="http://www.w3.org/2000/svg"><path d="M24.385 192.365a3.915 3.915 0 00-2.748-1.138 3.908 3.908 0 00-2.748 1.138 3.9 3.9 0 00-1.138 2.748 3.9 3.9 0 001.138 2.748A3.91 3.91 0 0021.637 199a3.916 3.916 0 002.748-1.139 3.919 3.919 0 001.14-2.748 3.917 3.917 0 00-1.14-2.748zm120.616-27.467a3.913 3.913 0 00-2.747-1.139 3.917 3.917 0 00-2.748 1.139 3.917 3.917 0 00-1.139 2.748 3.91 3.91 0 001.139 2.748 3.921 3.921 0 002.748 1.139 3.913 3.913 0 002.747-1.139 3.91 3.91 0 001.14-2.748 3.913 3.913 0 00-1.14-2.748z" fill="#FE043C"/><path d="M186.464 62.817a16.275 16.275 0 004.763-11.512v-3.11c0-9-7.323-16.324-16.325-16.324-9.001 0-16.324 7.323-16.324 16.324v3.11c0 4.489 1.822 8.559 4.764 11.513-6.38 3.504-11.013 9.808-12.224 17.248h-17.804c-6.429 0-11.66 5.231-11.66 11.66 0 1.363.237 2.67.669 3.887H76.677c.432-1.216.669-2.524.669-3.886 0-6.43-5.231-11.66-11.66-11.66H47.882c-1.211-7.44-5.844-13.746-12.224-17.249a16.273 16.273 0 004.764-11.513v-3.11c0-9-7.323-16.324-16.324-16.324-9.002 0-16.325 7.323-16.325 16.324v3.11c0 4.488 1.822 8.558 4.763 11.512C5.072 66.917 0 74.853 0 83.953v43.596c0 12.18 9.91 22.09 22.09 22.09h30.77v37.118c0 1.577.303 3.084.848 4.47H38.349a3.887 3.887 0 100 7.773h139.015a3.887 3.887 0 000-7.773h-32.072c.545-1.386.849-2.893.849-4.47v-4.47a3.888 3.888 0 00-7.774 0v4.47a4.475 4.475 0 01-4.47 4.47 4.475 4.475 0 01-4.469-4.47v-49.07c0-6.054 4.925-10.98 10.98-10.98h50.819v.842c0 7.894-6.422 14.316-14.316 14.316h-34.657a3.888 3.888 0 00-3.887 3.887v6.219a3.887 3.887 0 007.774 0v-2.332h30.77c12.18 0 22.089-9.91 22.089-22.09V83.953c0-9.1-5.072-17.037-12.536-21.136zm-20.112-14.622c0-4.715 3.835-8.55 8.55-8.55 4.715 0 8.551 3.835 8.551 8.55v3.11c0 4.715-3.836 8.55-8.551 8.55s-8.55-3.835-8.55-8.55v-3.11zm-150.805 0c0-4.715 3.836-8.55 8.55-8.55 4.716 0 8.551 3.835 8.551 8.55v3.11c0 4.715-3.835 8.55-8.55 8.55-4.715 0-8.551-3.835-8.551-8.55v-3.11zM7.773 83.953c0-9.001 7.323-16.324 16.325-16.324 9 0 16.324 7.323 16.324 16.324a3.887 3.887 0 003.887 3.887h21.377a3.891 3.891 0 013.886 3.887 3.891 3.891 0 01-3.886 3.886H43.05a16.708 16.708 0 01-14.75-8.832 3.886 3.886 0 10-6.852 3.671 24.466 24.466 0 0019.19 12.817c-.14.401-.217.834-.217 1.284v14.381H7.773v-34.98zm47.956 34.981h-7.534v-14.381a3.88 3.88 0 00-.178-1.166h7.712a15.442 15.442 0 00-2.092 7.773c0 2.831.764 5.485 2.092 7.774zm13.843 67.823a4.475 4.475 0 01-4.47 4.47 4.475 4.475 0 01-4.47-4.47v-41.005a3.888 3.888 0 00-3.886-3.887H22.09c-7.893 0-14.316-6.422-14.316-14.316v-.842h50.819c6.055 0 10.98 4.926 10.98 10.98v49.07zm18.268 4.47H76.497c.546-1.386.849-2.893.849-4.47v-49.07c0-4.098-1.325-7.891-3.565-10.98H87.84v64.52zm15.547 0h-7.774v-64.52h7.774v64.52zm19.116 0H111.16v-64.52h14.059a18.65 18.65 0 00-3.565 10.98v49.07c0 1.577.303 3.084.849 4.47zm7.313-72.293H69.184c-4.287 0-7.774-3.488-7.774-7.774s3.487-7.773 7.774-7.773h60.632c4.287 0 7.774 3.487 7.774 7.773s-3.487 7.774-7.774 7.774zm20.989-14.381v14.381h-7.534a15.442 15.442 0 002.092-7.774c0-2.831-.764-5.485-2.092-7.773h7.712c-.116.368-.178.76-.178 1.166zm40.422 14.381h-32.649v-14.381c0-.45-.076-.883-.217-1.284a24.466 24.466 0 0019.19-12.817 3.887 3.887 0 00-6.852-3.67 16.708 16.708 0 01-14.75 8.831h-22.635a3.89 3.89 0 01-3.886-3.886 3.89 3.89 0 013.886-3.887h21.377a3.887 3.887 0 003.887-3.887c0-9.001 7.323-16.324 16.324-16.324 9.002 0 16.325 7.323 16.325 16.324v34.981z" fill="#FE043C"/><path d="M127.484 0H71.516c-6.43 0-11.66 5.23-11.66 11.66v38.09c0 6.43 5.23 11.66 11.66 11.66h13.548L96.75 73.098a3.877 3.877 0 002.749 1.138c.995 0 1.989-.38 2.748-1.138l11.688-11.688h13.548c6.43 0 11.661-5.23 11.661-11.66V11.66c0-6.43-5.231-11.66-11.661-11.66zm3.887 49.75a3.89 3.89 0 01-3.887 3.887h-15.158a3.89 3.89 0 00-2.748 1.138L99.5 64.853 89.422 54.775a3.89 3.89 0 00-2.748-1.138H71.516a3.891 3.891 0 01-3.887-3.887V11.66a3.891 3.891 0 013.887-3.887h55.968a3.89 3.89 0 013.887 3.887v38.09z" fill="#FE043C"/><path d="M83.98 26.469a3.898 3.898 0 00-2.748-1.14 3.9 3.9 0 00-2.748 1.14 3.916 3.916 0 00-1.138 2.748c0 1.022.415 2.024 1.138 2.748a3.916 3.916 0 002.748 1.138 3.915 3.915 0 002.748-1.139 3.916 3.916 0 001.14-2.747 3.915 3.915 0 00-1.14-2.748zm18.268 0a3.919 3.919 0 00-2.748-1.14 3.916 3.916 0 00-2.748 1.14 3.916 3.916 0 00-1.139 2.748c0 1.022.416 2.024 1.14 2.748a3.916 3.916 0 002.747 1.138 3.917 3.917 0 002.748-1.139 3.92 3.92 0 001.139-2.747 3.916 3.916 0 00-1.139-2.748zm18.267 0a3.896 3.896 0 00-2.747-1.14 3.899 3.899 0 00-2.748 1.14 3.916 3.916 0 00-1.139 2.748c0 1.022.415 2.024 1.139 2.748a3.915 3.915 0 002.748 1.138 3.913 3.913 0 002.747-1.139 3.916 3.916 0 001.139-2.747 3.916 3.916 0 00-1.139-2.748z" fill="#FE043C"/></svg>