<svg width="199" height="153" fill="none" xmlns="http://www.w3.org/2000/svg"><path d="M99.616 23.151c-32.476 0-58.896 26.421-58.896 58.897s26.42 58.897 58.896 58.897 58.897-26.421 58.897-58.897-26.421-58.897-58.897-58.897zm0 110.02c-28.19 0-51.123-22.934-51.123-51.123 0-28.19 22.933-51.124 51.123-51.124 28.19 0 51.124 22.934 51.124 51.124 0 28.189-22.934 51.123-51.124 51.123z" fill="#FE043C"/><path d="M134.481 63.05a3.887 3.887 0 00-5.274-1.55c-.063.035-.121.075-.182.112a3.884 3.884 0 00-1.367 5.163 31.961 31.961 0 013.883 15.273c0 17.603-14.321 31.924-31.925 31.924-17.603 0-31.924-14.321-31.924-31.924 0-17.604 14.32-31.925 31.924-31.925 1.689 0 3.385.133 5.039.395a3.881 3.881 0 004.403-3.02c.015-.07.032-.139.044-.21a3.887 3.887 0 00-3.231-4.447 40.089 40.089 0 00-6.255-.491c-21.89 0-39.698 17.808-39.698 39.698 0 21.889 17.808 39.698 39.698 39.698 21.889 0 39.698-17.809 39.698-39.698a39.755 39.755 0 00-4.833-18.998z" fill="#FE043C"/><path d="M124.449 49.57a3.725 3.725 0 00-.591-.483 3.935 3.935 0 00-1.399-.58 3.85 3.85 0 00-2.247.223 3.947 3.947 0 00-.668.358c-.214.14-.412.303-.595.481a3.944 3.944 0 00-.839 1.264c-.062.147-.11.299-.153.453-.025.09-.05.181-.069.273-.05.249-.073.505-.073.758 0 .257.023.51.073.762a3.917 3.917 0 001.656 2.472 3.95 3.95 0 001.396.58c.252.05.509.073.761.073a3.849 3.849 0 002.065-.598c.03-.019.063-.035.092-.055a3.97 3.97 0 00.591-.486 3.912 3.912 0 001.139-2.748 3.914 3.914 0 00-1.139-2.748zm74.451 88.141L186.294 35.045a54.206 54.206 0 00-6.669-20.21 54.529 54.529 0 00-7.865-10.63l-.339-.357c-2.59-2.733-6.464-3.461-9.872-1.856-3.406 1.605-5.31 5.058-4.851 8.796l15.979 130.143c.051.418.122.828.21 1.232 1.328 6.049 6.731 10.37 12.892 10.369.535 0 1.076-.032 1.619-.099 4.293-.527 7.856-3.07 9.856-6.562a13.12 13.12 0 001.048-2.322c.619-1.821.848-3.805.598-5.838zM164.414 9.84c-.019-.156-.07-.571.45-.817a.883.883 0 01.377-.093c.288 0 .461.183.538.265l.34.358a46.735 46.735 0 016.742 9.113 46.471 46.471 0 015.719 17.326l6.718 54.717-10.792 1.325L164.414 9.84zm26.435 131.468a5.443 5.443 0 01-4.397 3.409 5.44 5.44 0 01-6.059-4.734l-4.94-40.233 10.792-1.325 4.94 40.233a5.405 5.405 0 01-.336 2.65zM47.933 4.88a3.886 3.886 0 00-4.331 3.384l-3.535 28.79a9.257 9.257 0 01-8.664 8.145l-2.577-.316 4.65-37.862a3.887 3.887 0 00-7.716-.948l-4.65 37.862-2.578-.316a9.257 9.257 0 01-6.435-10l3.535-28.79a3.887 3.887 0 00-7.716-.947l-3.534 28.79c-.885 7.203 2.792 13.956 8.993 17.196L.153 134.962l-.005.029a13.43 13.43 0 002.623 10.177 13.422 13.422 0 009.112 5.23l.071.009a13.84 13.84 0 001.683.103c3.074 0 6.029-1.039 8.463-3.003a13.423 13.423 0 004.98-9.303l7.815-85.693c6.802-1.643 12.004-7.306 12.888-14.51l3.535-28.79a3.888 3.888 0 00-3.385-4.331zM19.34 137.498a5.716 5.716 0 01-2.12 3.96 5.7 5.7 0 01-4.315 1.234l-.07-.008a5.713 5.713 0 01-3.88-2.226 5.714 5.714 0 01-1.118-4.319l13.115-84.391 3.067.376.004.001h.003l3.065.376-7.751 84.997z" fill="#FE043C"/></svg>