<svg width="28" height="34" fill="none" xmlns="http://www.w3.org/2000/svg"><path d="M9.302 34C4.242 33.97.056 23.64.056 18.38c0-8.593 6.447-10.474 8.93-10.474 1.12 0 2.316.44 3.37.829.738.271 1.5.551 1.925.551.253 0 .852-.238 1.38-.447 1.126-.449 2.528-1.006 4.16-1.006h.01c1.219 0 4.914.267 7.136 3.604l.52.782-.748.565c-1.07.808-3.023 2.28-3.023 5.198 0 3.455 2.211 4.784 3.273 5.423.47.282.955.573.955 1.209 0 .415-3.315 9.334-8.13 9.334-1.177 0-2.01-.354-2.745-.666-.743-.316-1.384-.588-2.443-.588-.537 0-1.216.253-1.935.523-.982.367-2.094.783-3.356.783h-.033zM20.331 0c.126 4.52-3.107 7.657-6.336 7.46C13.462 3.853 17.223 0 20.33 0z" fill="#fff"/></svg>