<svg width="25" height="20" fill="none" xmlns="http://www.w3.org/2000/svg"><path d="M9.76 20c-1.017 0-2.063-.082-3.115-.247-1.853-.291-3.729-1.26-4.26-1.55L.993 17.44l1.507-.495c1.648-.542 2.65-.878 3.891-1.405-1.242-.601-2.2-1.684-2.66-3.083l-.351-1.064.287.044a5.231 5.231 0 01-.655-.808c-.593-.901-.907-2.003-.84-2.947l.065-.929.557.216a5.2 5.2 0 01-.504-1.413 5.375 5.375 0 01.572-3.618l.485-.89.648.778c2.05 2.462 4.645 3.923 7.727 4.35-.126-.867-.032-1.704.28-2.455.364-.873 1.01-1.614 1.869-2.142a5.614 5.614 0 013.258-.8 5.196 5.196 0 013.198 1.319c.429-.112.744-.23 1.171-.391.257-.097.548-.206.912-.332l1.343-.462-.876 2.5a4.42 4.42 0 01.18-.012l1.433-.065-.847 1.158c-.049.066-.061.085-.078.111-.069.103-.154.231-1.316 1.784a2.191 2.191 0 00-.41 1.426c.103 2.018-.144 3.844-.736 5.426a9.603 9.603 0 01-2.578 3.818c-1.423 1.283-3.239 2.16-5.396 2.61a16.62 16.62 0 01-3.37.33z" fill="#707070"/></svg>