<svg width="52" height="52" fill="none" xmlns="http://www.w3.org/2000/svg"><circle cx="26" cy="26" r="26" fill="#fff"/><path d="M36.607 30.393a14.94 14.94 0 00-5.7-3.575 8.669 8.669 0 003.765-7.146C34.672 14.89 30.782 11 26 11s-8.672 3.89-8.672 8.672a8.669 8.669 0 003.765 7.146 14.941 14.941 0 00-5.7 3.575A14.902 14.902 0 0011 41h2.344c0-6.979 5.677-12.656 12.656-12.656 6.979 0 12.656 5.677 12.656 12.656H41c0-4.007-1.56-7.773-4.393-10.607zM26 26a6.335 6.335 0 01-6.328-6.328A6.335 6.335 0 0126 13.344a6.335 6.335 0 016.328 6.328A6.335 6.335 0 0126 26z" fill="#2E266F"/><circle cx="43.5" cy="7.5" r="7.5" fill="#31A24C"/></svg>